# xmcd CD database file
#
# Track frame offsets:
#	150
#	17875
#	35590
#
# Disc length: 717 seconds
#
# Revision: 3
# Processed by: cddbd v1.5PL3 Copyright (c) Steve Scherf et al.
# Submitted via: CDex 1.51
#
DISCID=1e02cb03
DTITLE=Firehouse - Don't Treat Me Bad
DYEAR=1991
DGENRE=Rock
TTITLE0=Don't Treat Me Bad
TTITLE1=Overnight Sensation
TTITLE2=Lover's Lane
EXTD=YEAR: 1991
EXTT0=
EXTT1=
EXTT2=
PLAYORDER=
